<svg viewBox="0 0 36 36" xmlns="http://www.w3.org/2000/svg" xmlns:xlink="http://www.w3.org/1999/xlink" width="36.000000" height="36.000000" fill="none">
	<rect id="Linkedin" width="36.000000" height="36.000000" x="0.000000" y="0.000000" />
	<circle id="Circle" cx="18" cy="18" r="15.000001" fill="rgb(0,119,181)" />
	<g id="linkedin icon">
		<g id="Group">
			<path id="Vector" d="M14.0811 10.7129C14.0811 11.6467 13.37 12.4025 12.2581 12.4025C11.1895 12.4025 10.4785 11.6467 10.5005 10.7129C10.4785 9.73371 11.1895 9 12.2794 9C13.37 9 14.0597 9.73371 14.0811 10.7129ZM10.5899 24.6143L10.5899 13.7372L13.9703 13.7372L13.9703 24.6136L10.5899 24.6136L10.5899 24.6143Z" fill="rgb(255,255,255)" fill-rule="evenodd" />
		</g>
		<g id="Group">
			<path id="Vector" d="M16.6798 17.2086C16.6798 15.8519 16.6351 14.6952 16.5904 13.7387L19.5266 13.7387L19.6827 15.2289L19.7494 15.2289C20.1943 14.5392 21.3063 13.4946 23.1079 13.4946C25.3317 13.4946 27 14.9627 27 18.1644L27 24.6159L23.6195 24.6159L23.6195 18.588C23.6195 17.1859 23.1306 16.2301 21.9073 16.2301C20.9727 16.2301 20.4171 16.8751 20.195 17.4974C20.1056 17.7202 20.0616 18.031 20.0616 18.3432L20.0616 24.6159L16.6812 24.6159L16.6812 17.2086L16.6798 17.2086Z" fill="rgb(255,255,255)" fill-rule="evenodd" />
		</g>
	</g>
</svg>
